<svg xmlns="http://www.w3.org/2000/svg" width="20.339" height="36" viewBox="0 0 20.339 36">
  <g id="noun-chef-343814" transform="translate(-145.82 11.6)">
    <path id="Path_12" data-name="Path 12" d="M63.3,16.507a3.136,3.136,0,0,0-2.882-2.923c-.543-.084-1.128-.167-1.754-.292A7.539,7.539,0,0,0,59.5,11.2a5.349,5.349,0,0,0,1.462-3.508,2.275,2.275,0,0,0-1.128-2.13l.125-.125a1.3,1.3,0,0,0,.292-1L59.588.595A4.653,4.653,0,0,0,62.8-3.832,4.67,4.67,0,0,0,58.126-8.51h0a4.706,4.706,0,0,0-4.385-3.09,4.7,4.7,0,0,0-4.427,3.132,2.959,2.959,0,0,0-.585-.042A4.706,4.706,0,0,0,44.01-3.832,4.6,4.6,0,0,0,47.226.595l-.71,3.842a1.322,1.322,0,0,0,.251,1.044l.167.167a2.252,2.252,0,0,0-1.086,2.088,5.534,5.534,0,0,0,.543,2.172,3.188,3.188,0,0,0,.877,1.295,8.09,8.09,0,0,0,.835,2.088,19.013,19.013,0,0,1-1.879.292,3.136,3.136,0,0,0-2.882,2.923L43.3,24.4h1.253l.042-7.81a1.872,1.872,0,0,1,1.8-1.754c.668-.084,1.378-.209,2.13-.334.125-.042.251-.042.376-.084a6.022,6.022,0,0,0,3.592,2.255l-3.633,2.088a.343.343,0,0,0-.167.251v5.262h.626V19.221l4.3-2.506a5.911,5.911,0,0,0,4.176-2.3c.084,0,.167.042.251.042.752.125,1.5.251,2.13.334a1.848,1.848,0,0,1,1.8,1.754l.418,7.852,1.253-.042ZM45.263-3.832a3.44,3.44,0,0,1,3.425-3.425,3.3,3.3,0,0,1,1.587.376v-.042A3.44,3.44,0,0,1,53.7-10.347a3.43,3.43,0,0,1,3.425,3.216,3.655,3.655,0,0,1,1-.125,3.44,3.44,0,0,1,3.425,3.425A3.44,3.44,0,0,1,58.126-.407l.5,2.882H48.186l.543-2.882A3.449,3.449,0,0,1,45.263-3.832ZM59,4.646H47.81L48.1,3.059h10.65ZM57.04,13.458a4.769,4.769,0,0,1-3.633,2,4.711,4.711,0,0,1-3.55-1.921l-.376-.5V13h0A7.662,7.662,0,0,1,48.4,10.2h-.251A4.407,4.407,0,0,1,47.1,7.695c0-1,.543-1.169,1.211-1.169V5.857H58.46v.668c.668,0,1.211.125,1.211,1.169a3.922,3.922,0,0,1-1,2.506h-.292A5.927,5.927,0,0,1,57.04,13.458Zm-5.3,6.515a.71.71,0,1,0,.71.71A.658.658,0,0,0,51.736,19.973Zm3.759,0a.71.71,0,1,0,.71.71A.7.7,0,0,0,55.495,19.973ZM51.736,22.9a.71.71,0,1,0,.71.71A.658.658,0,0,0,51.736,22.9Zm3.759,0a.71.71,0,1,0,.71.71A.7.7,0,0,0,55.495,22.9ZM51.527,7.862a.314.314,0,0,0,.292.209.153.153,0,0,0,.125-.042.305.305,0,0,0,.167-.418A1.293,1.293,0,0,0,50.9,6.9a1.339,1.339,0,0,0-1.211.71.318.318,0,1,0,.585.251.644.644,0,0,1,.626-.334A.831.831,0,0,1,51.527,7.862Zm4.051-.919a1.339,1.339,0,0,0-1.211.71.318.318,0,1,0,.585.251.754.754,0,0,1,1.253,0,.314.314,0,0,0,.292.209.153.153,0,0,0,.125-.042.305.305,0,0,0,.167-.418A1.228,1.228,0,0,0,55.578,6.943Zm.167,4.594-4.594.334C51.694,13.917,55.328,13.876,55.745,11.537Z" transform="translate(102.52 0)" fill="#271b08"/>
  </g>
</svg>
