<svg xmlns="http://www.w3.org/2000/svg" width="36.286" height="36.303" viewBox="0 0 36.286 36.303">
  <g id="noun-chefs-1343322" transform="translate(-10.125 -9.962)">
    <path id="Path_89" data-name="Path 89" d="M23.068,70.552h.882a.454.454,0,1,0,0-.907h-.882a.454.454,0,1,0,0,.907Z" transform="translate(-6.824 -32.612)"/>
    <path id="Path_90" data-name="Path 90" d="M35.818,69.645h-.882a.454.454,0,1,0,0,.907h.882a.454.454,0,1,0,0-.907Z" transform="translate(-13.31 -32.612)"/>
    <path id="Path_91" data-name="Path 91" d="M23.95,74.617h-.882a.454.454,0,1,0,0,.907h.882a.454.454,0,0,0,0-.907Z" transform="translate(-6.825 -35.329)"/>
    <path id="Path_92" data-name="Path 92" d="M35.818,74.617h-.882a.454.454,0,0,0,0,.907h.882a.454.454,0,1,0,0-.907Z" transform="translate(-13.31 -35.329)"/>
    <path id="Path_93" data-name="Path 93" d="M40.565,33.616v-2.44a6.445,6.445,0,0,0,1.673-9.384V19.283a3.813,3.813,0,0,0,2.479-4.03,3.832,3.832,0,0,0-4.555-3.319,3.829,3.829,0,0,0-6.814.228,3.11,3.11,0,0,0-1.274.071,3.271,3.271,0,0,0-2.439,3.118,3.229,3.229,0,0,0,2.5,3.18v3.059a6.45,6.45,0,0,0,1.581,9.627V33.61a5.273,5.273,0,0,0-4.244,2.781,10.363,10.363,0,0,0-1.192,3.055c-.749-3.491-2.71-5.621-5.5-5.83v-.372a7.214,7.214,0,0,0,4.882-1.6.454.454,0,0,0-.142-.742c-1.355-.572-1.992-2.884-2.06-3.143a6.436,6.436,0,0,0-1.008-5.964V19.284a3.813,3.813,0,0,0,2.479-4.03,3.832,3.832,0,0,0-4.555-3.319,3.829,3.829,0,0,0-6.814.228,3.1,3.1,0,0,0-1.273.071,3.272,3.272,0,0,0-2.44,3.118,3.229,3.229,0,0,0,2.5,3.18V21.59a6.431,6.431,0,0,0-1.128,6.267c-.149.526-.789,2.517-2.032,3.041a.454.454,0,0,0-.142.742,7.21,7.21,0,0,0,4.882,1.6v.367a5.275,5.275,0,0,0-4.244,2.781,12.654,12.654,0,0,0-1.567,6.473v2.948a.453.453,0,0,0,.454.454H28.173a.245.245,0,0,1,.19,0H45.957a.453.453,0,0,0,.454-.454V42.861C46.411,37.37,44.182,33.886,40.565,33.616Zm-7.8-11.352h5.769A19.412,19.412,0,0,1,31.6,25.037,5.548,5.548,0,0,1,32.763,22.264Zm7.2,0h1.49a5.55,5.55,0,0,1,1.2,3.113,6.753,6.753,0,0,1-3.971-2.113A10.258,10.258,0,0,0,39.967,22.264Zm-9.423-6.908a2.361,2.361,0,0,1,1.766-2.247,2.247,2.247,0,0,1,1.2.012.455.455,0,0,0,.549-.288,2.918,2.918,0,0,1,5.212-.623,3.252,3.252,0,0,0-1.483,1.31.454.454,0,0,0,.782.462,2.35,2.35,0,0,1,1.44-1.073c.008,0,.014-.007.021-.009s.016,0,.024,0a2.923,2.923,0,0,1,3.765,2.457,2.912,2.912,0,0,1-2.148,3.159.453.453,0,0,0-.336.438v2.405H33.046v-3.21a.454.454,0,0,0-.407-.451A2.326,2.326,0,0,1,30.543,15.356Zm1.018,10.613a21.878,21.878,0,0,0,6.327-2.219,7.718,7.718,0,0,0,4.748,2.534,5.534,5.534,0,0,1-3.762,4.7,7.042,7.042,0,0,1-3.5.008A5.544,5.544,0,0,1,31.561,25.969Zm3.533,5.886a7.264,7.264,0,0,0,2.006.259,7.94,7.94,0,0,0,2.032-.261c.18-.059.355-.127.526-.2v2.135l-.071.043a4.7,4.7,0,0,1-4.865.012l-.095-.057V31.68C34.78,31.744,34.935,31.8,35.094,31.855ZM16.938,33.842l-.095-.057V31.68q.229.1.466.175a7.264,7.264,0,0,0,2.006.259,7.943,7.943,0,0,0,2.032-.261c.18-.059.354-.127.526-.2v2.135l-.071.043A4.7,4.7,0,0,1,16.938,33.842ZM14.979,22.264h5.769a19.409,19.409,0,0,1-6.934,2.773A5.549,5.549,0,0,1,14.979,22.264Zm8.695,0a5.55,5.55,0,0,1,1.2,3.113A6.756,6.756,0,0,1,20.9,23.264a10.217,10.217,0,0,0,1.284-1Zm-9.9,3.705A21.887,21.887,0,0,0,20.1,23.751a7.717,7.717,0,0,0,4.748,2.533,5.534,5.534,0,0,1-3.762,4.7,7.042,7.042,0,0,1-3.5.008A5.543,5.543,0,0,1,13.777,25.969ZM26.53,31.354a7.26,7.26,0,0,1-3.75.975V31.177a6.45,6.45,0,0,0,2.13-2.21A5.779,5.779,0,0,0,26.53,31.354Zm-13.771-16a2.362,2.362,0,0,1,1.767-2.247,2.246,2.246,0,0,1,1.195.012.455.455,0,0,0,.549-.288,2.918,2.918,0,0,1,5.212-.623A3.254,3.254,0,0,0,20,13.519a.453.453,0,1,0,.781.462,2.352,2.352,0,0,1,1.44-1.073c.008,0,.014-.007.021-.009s.016,0,.024,0a2.923,2.923,0,0,1,3.765,2.457,2.912,2.912,0,0,1-2.148,3.159.453.453,0,0,0-.336.438v2.405H15.262v-3.21a.454.454,0,0,0-.407-.451A2.326,2.326,0,0,1,12.759,15.356Zm-.572,16a5.715,5.715,0,0,0,1.592-2.319,6.451,6.451,0,0,0,2.157,2.181v1.112A7.276,7.276,0,0,1,12.187,31.354ZM11.032,42.864a11.752,11.752,0,0,1,1.435-6A4.433,4.433,0,0,1,16.243,34.5h0c.005,0,.01,0,.016,0l.213.127a5.6,5.6,0,0,0,2.486.775v9.962H11.032ZM27.72,45.358H19.866v-9.97a5.612,5.612,0,0,0,2.408-.782l.168-.1c3.886.085,5.278,4.353,5.278,8.356v2.5Zm1.1-2.494a11.752,11.752,0,0,1,1.435-6A4.433,4.433,0,0,1,34.027,34.5h0c.005,0,.01,0,.016,0l.213.127a5.6,5.6,0,0,0,2.486.775v9.962H28.816ZM45.5,45.358H37.65v-9.97a5.614,5.614,0,0,0,2.408-.782l.168-.1c3.886.085,5.278,4.353,5.278,8.356v2.5Z"/>
    <path id="Path_94" data-name="Path 94" d="M62.277,70.552h.882a.454.454,0,1,0,0-.907h-.882a.454.454,0,1,0,0,.907Z" transform="translate(-28.249 -32.612)"/>
    <path id="Path_95" data-name="Path 95" d="M75.027,69.645h-.882a.454.454,0,1,0,0,.907h.882a.454.454,0,1,0,0-.907Z" transform="translate(-34.735 -32.612)"/>
    <path id="Path_96" data-name="Path 96" d="M63.159,74.617h-.882a.454.454,0,1,0,0,.907h.882a.454.454,0,0,0,0-.907Z" transform="translate(-28.25 -35.329)"/>
    <path id="Path_97" data-name="Path 97" d="M75.027,74.617h-.882a.454.454,0,1,0,0,.907h.882a.454.454,0,1,0,0-.907Z" transform="translate(-34.735 -35.329)"/>
    <path id="Path_98" data-name="Path 98" d="M23.95,79.59h-.882a.454.454,0,0,0,0,.907h.882a.454.454,0,0,0,0-.907Z" transform="translate(-6.825 -38.047)"/>
    <path id="Path_99" data-name="Path 99" d="M35.818,79.59h-.882a.454.454,0,0,0,0,.907h.882a.454.454,0,1,0,0-.907Z" transform="translate(-13.31 -38.047)"/>
    <path id="Path_100" data-name="Path 100" d="M63.159,79.59h-.882a.454.454,0,0,0,0,.907h.882a.454.454,0,0,0,0-.907Z" transform="translate(-28.25 -38.047)"/>
    <path id="Path_101" data-name="Path 101" d="M75.027,79.59h-.882a.454.454,0,0,0,0,.907h.882a.454.454,0,0,0,0-.907Z" transform="translate(-34.735 -38.047)"/>
  </g>
</svg>
