<svg id="noun-spoon-1593387" xmlns="http://www.w3.org/2000/svg" width="33.174" height="28" viewBox="0 0 33.174 28">
  <g id="Group_7" data-name="Group 7" transform="translate(0 0)">
    <path id="Path_5" data-name="Path 5" d="M7.6,16.417a5.284,5.284,0,0,1,4.965-3.055c4.048.535,6.454,3.475,7.371,7.294a5.346,5.346,0,0,0,2.215,3.361c2.215,1.451,4.354,3.017,6.569,4.506,2.635,1.833,5.079,3.934,7.791,5.69a12.176,12.176,0,0,1,3.284,2.635.23.23,0,0,0,.038.153,5.71,5.71,0,0,1,.267,3.4,6.341,6.341,0,0,1-.8.611c-1.107.687-2.177.153-3.17-.344a4.713,4.713,0,0,1-1.107-.84,51.7,51.7,0,0,0-6.149-5c-2.6-1.909-5.423-3.475-7.943-5.461a21.344,21.344,0,0,0-4.85-2.864c-1.3-.573-2.75-.5-4.048-.917C8.055,24.4,6.069,20.656,7.6,16.417ZM12.752,24.7a17.059,17.059,0,0,1,8.669,3.666c1.757,1.3,3.666,2.291,5.385,3.59,2.559,1.948,5.385,3.513,7.791,5.652.8.726,1.489,1.566,2.291,2.33.5.5,2.177.344,2.253-.267a2.45,2.45,0,0,0-.115-1.719A6.765,6.765,0,0,0,37.117,35.7c-3.017-2.062-6.072-4.086-9.051-6.187-2.444-1.68-4.85-3.4-7.218-5.232a5.242,5.242,0,0,1-1.757-3.093c-.649-2.9-2.711-6.454-6.53-6.836A4.3,4.3,0,0,0,8.78,16.3a8.171,8.171,0,0,0-.8,2.635C7.94,21.649,9.964,24.436,12.752,24.7Z" transform="translate(-7.081 -13.338)"/>
    <path id="Path_6" data-name="Path 6" d="M66.983,22.005c.344,1.833.955,3.513,2.75,4.545a7.866,7.866,0,0,0,3.437,1.184c.382,0,.8.076.878-.42.076-.611-.382-.42-.726-.42a7.006,7.006,0,0,1-5.156-4.01,3.194,3.194,0,0,1,.076-2.062c.076-.229.153-.573-.229-.649-.267-.076-.42.115-.573.306A2.409,2.409,0,0,0,66.983,22.005Z" transform="translate(-63.756 -17.551)"/>
    <path id="Path_7" data-name="Path 7" d="M69,26.046c.42.382.229.917.5,1.3s.687,1.107.8,1.069c1.146-.42,1.642.878,2.941.878A8.44,8.44,0,0,1,70.184,26.2C69.955,25.817,69.42,26.161,69,26.046Z" transform="translate(-63.711 -21.172)"/>
  </g>
</svg>
