<svg xmlns="http://www.w3.org/2000/svg" width="57.553" height="101.869" viewBox="0 0 57.553 101.869">
  <g id="noun-chef-343814" transform="translate(-145.82 11.6)">
    <path id="Path_12" data-name="Path 12" d="M99.907,67.934c-.355-4.491-3.427-7.563-8.154-8.272-1.536-.236-3.191-.473-4.963-.827a21.333,21.333,0,0,0,2.364-5.909c2.836-2.127,4.136-7.8,4.136-9.927,0-1.536-.355-4.609-3.191-6.027l.355-.355a3.669,3.669,0,0,0,.827-2.836L89.389,22.908A13.209,13.209,0,0,0,85.253-2.855h0A13.318,13.318,0,0,0,72.844-11.6,13.3,13.3,0,0,0,60.318-2.737a8.372,8.372,0,0,0-1.654-.118A13.315,13.315,0,0,0,45.309,10.381a13.019,13.019,0,0,0,9.1,12.527L52.4,33.78a3.741,3.741,0,0,0,.709,2.954l.473.473c-2.718,1.418-3.073,4.373-3.073,5.909a15.659,15.659,0,0,0,1.536,6.145,9.021,9.021,0,0,0,2.482,3.664,22.892,22.892,0,0,0,2.364,5.909,53.8,53.8,0,0,1-5.318.827c-4.727.709-7.8,3.782-8.154,8.272L43.3,90.269h3.545l.118-22.1a5.3,5.3,0,0,1,5.082-4.963c1.891-.236,3.9-.591,6.027-.945.355-.118.709-.118,1.064-.236A17.041,17.041,0,0,0,69.3,68.406L59.018,74.315a.972.972,0,0,0-.473.709v14.89h1.773v-14.3L72.49,68.525a16.728,16.728,0,0,0,11.818-6.5c.236,0,.473.118.709.118,2.127.355,4.254.709,6.027.945,2.245.355,4.845,1.418,5.082,4.963l1.182,22.217,3.545-.118ZM48.854,10.381A9.734,9.734,0,0,1,58.545.691a9.337,9.337,0,0,1,4.491,1.064V1.636a9.734,9.734,0,0,1,9.691-9.691,9.706,9.706,0,0,1,9.691,9.1A10.342,10.342,0,0,1,85.253.691a9.691,9.691,0,0,1,0,19.381l1.418,8.154H57.127l1.536-8.154A9.76,9.76,0,0,1,48.854,10.381Zm38.881,23.99H56.063l.827-4.491H87.026ZM82.181,59.307c-2.6,3.309-6.263,5.673-10.281,5.673-3.9,0-7.445-2.245-10.045-5.436L60.79,58.125v-.118h0a21.681,21.681,0,0,1-3.073-7.918h-.709c-.473,0-2.954-4.254-2.954-7.091s1.536-3.309,3.427-3.309V37.8H86.2v1.891c1.891,0,3.427.355,3.427,3.309,0,2.836-2.127,7.091-2.836,7.091h-.827A16.772,16.772,0,0,1,82.181,59.307ZM67.172,77.743a2.009,2.009,0,1,0,2.009,2.009A1.862,1.862,0,0,0,67.172,77.743Zm10.636,0a2.009,2.009,0,1,0,2.009,2.009A1.992,1.992,0,0,0,77.808,77.743ZM67.172,86.015a2.009,2.009,0,1,0,2.009,2.009A1.862,1.862,0,0,0,67.172,86.015Zm10.636,0a2.009,2.009,0,1,0,2.009,2.009A1.992,1.992,0,0,0,77.808,86.015ZM66.581,43.471a.889.889,0,0,0,.827.591.434.434,0,0,0,.355-.118.863.863,0,0,0,.473-1.182,3.659,3.659,0,0,0-3.427-2.009,3.788,3.788,0,0,0-3.427,2.009.9.9,0,1,0,1.654.709,1.821,1.821,0,0,1,1.773-.945A2.352,2.352,0,0,1,66.581,43.471Zm11.463-2.6a3.788,3.788,0,0,0-3.427,2.009.9.9,0,1,0,1.654.709,2.135,2.135,0,0,1,3.545,0,.889.889,0,0,0,.827.591A.434.434,0,0,0,81,44.062a.863.863,0,0,0,.473-1.182A3.475,3.475,0,0,0,78.044,40.871Zm.473,13-13,.945C67.054,60.607,77.335,60.489,78.517,53.871Z" transform="translate(102.52 0)" fill="#fff"/>
  </g>
</svg>
