<svg xmlns="http://www.w3.org/2000/svg" width="136.518" height="119.593" viewBox="0 0 136.518 119.593">
  <g id="noun-spoon-1593387" transform="translate(0 15.188) rotate(-7)">
    <g id="Group_7" data-name="Group 7" transform="translate(0 0)">
      <path id="Path_5" data-name="Path 5" d="M9.016,24.9c2.439-6.887,12.051-12.338,18.651-11.478,15.208,2.009,24.246,13.056,27.69,27.4,1.291,5.308,3.73,9.469,8.321,12.625C72,58.907,80.033,64.789,88.355,70.384c9.9,6.887,19.081,14.777,29.268,21.377,4.448,2.869,9.039,5.6,12.338,9.9a.863.863,0,0,0,.143.574c1.291,3.3,2.3,9.039,1,12.769a23.82,23.82,0,0,1-3.013,2.3c-4.161,2.582-8.178.574-11.908-1.291a17.7,17.7,0,0,1-4.161-3.156c-7.03-7.03-15.064-12.912-23.1-18.794C79.173,86.883,68.556,81,59.087,73.541A80.184,80.184,0,0,0,40.866,62.78c-4.878-2.152-10.33-1.865-15.208-3.443C10.738,54.89,3.278,40.83,9.016,24.9ZM28.385,56.037c12.051,1,22.955,6.6,32.567,13.773,6.6,4.878,13.773,8.608,20.229,13.486,9.612,7.317,20.229,13.2,29.268,21.233,3.013,2.726,5.6,5.882,8.608,8.752,1.865,1.865,8.178,1.291,8.465-1,.287-1.865.861-4.448-.43-6.456-2.009-3.156-3.874-6.313-7.173-8.465-11.334-7.747-22.812-15.351-34-23.242C76.734,67.8,67.7,61.346,58.8,54.459c-3.587-2.726-5.452-6.887-6.6-11.621-2.439-10.9-10.186-24.246-24.533-25.681-4.734-.43-11.764,2.582-14.2,7.317a30.7,30.7,0,0,0-3.013,9.9C10.308,44.56,17.911,55.033,28.385,56.037Z" transform="translate(-7.081 -13.338)" fill="#fff"/>
      <path id="Path_6" data-name="Path 6" d="M67,27.106c1.291,6.887,3.587,13.2,10.33,17.073,4.017,2.3,8.178,4.161,12.912,4.448,1.435,0,3.013.287,3.3-1.578.287-2.3-1.435-1.578-2.726-1.578-6.887-.287-17.36-8.321-19.368-15.064a12,12,0,0,1,.287-7.747c.287-.861.574-2.152-.861-2.439-1-.287-1.578.43-2.152,1.148A9.05,9.05,0,0,0,67,27.106Z" transform="translate(-54.875 -10.374)" fill="#fff"/>
      <path id="Path_7" data-name="Path 7" d="M69,26.138c1.578,1.435.861,3.443,1.865,4.878s2.582,4.161,3.013,4.017c4.3-1.578,6.169,3.3,11.047,3.3-5.6-3.013-8.608-7.317-11.478-11.621C72.587,25.277,70.578,26.568,69,26.138Z" transform="translate(-49.131 -7.828)" fill="#fff"/>
    </g>
  </g>
</svg>
